<svg width="16" height="16" viewBox="0 0 16 16" fill="none" xmlns="http://www.w3.org/2000/svg">
    <path fill-rule="evenodd" clip-rule="evenodd" d="M13.4179 1.16789C13.8084 0.777369 14.4416 0.777369 14.8321 1.16789C15.2226 1.55842 15.2226 2.19158 14.8321 2.58211L9.41422 8L14.8321 13.4179C15.2226 13.8084 15.2226 14.4416 14.8321 14.8321C14.4416 15.2226 13.8084 15.2226 13.4179 14.8321L8 9.41421L2.58211 14.8321C2.19158 15.2226 1.55842 15.2226 1.16789 14.8321C0.777369 14.4416 0.777369 13.8084 1.16789 13.4179L6.58579 8L1.16789 2.58211C0.77737 2.19158 0.77737 1.55842 1.16789 1.16789C1.55842 0.777369 2.19158 0.777369 2.58211 1.16789L8 6.58579L13.4179 1.16789Z" fill="#A3A4AA"/>
</svg>