<svg width="33" height="32" viewBox="0 0 33 32" fill="none" xmlns="http://www.w3.org/2000/svg">
    <circle cx="16.5" cy="16" r="15.5" fill="#FCFCFD" stroke="#EFF1F3"/>
    <path d="M14.502 16.132C13.938 16.132 13.62 16.6 13.548 17.536H12.594C12.642 16.696 12.828 16.054 13.152 15.61C13.488 15.154 13.95 14.926 14.538 14.926C14.862 14.926 15.186 15.022 15.51 15.214L17.616 16.456C17.952 16.66 18.252 16.762 18.516 16.762C18.876 16.762 19.116 16.654 19.236 16.438C19.368 16.21 19.434 15.868 19.434 15.412H20.388C20.388 17.128 19.758 17.986 18.498 17.986C18.03 17.986 17.544 17.83 17.04 17.518L15.276 16.384C15 16.216 14.742 16.132 14.502 16.132ZM14.502 19.21C13.938 19.21 13.62 19.678 13.548 20.614H12.594C12.642 19.774 12.828 19.132 13.152 18.688C13.488 18.232 13.95 18.004 14.538 18.004C14.862 18.004 15.186 18.1 15.51 18.292L17.616 19.534C17.952 19.738 18.252 19.84 18.516 19.84C18.876 19.84 19.116 19.732 19.236 19.516C19.368 19.288 19.434 18.946 19.434 18.49H20.388C20.388 20.206 19.758 21.064 18.498 21.064C18.03 21.064 17.544 20.908 17.04 20.596L15.276 19.462C15 19.294 14.742 19.21 14.502 19.21ZM14.502 13.108C13.938 13.108 13.62 13.576 13.548 14.512H12.594C12.642 13.672 12.828 13.03 13.152 12.586C13.488 12.13 13.95 11.902 14.538 11.902C14.862 11.902 15.186 11.998 15.51 12.19L17.616 13.432C17.952 13.636 18.252 13.738 18.516 13.738C18.876 13.738 19.116 13.63 19.236 13.414C19.368 13.186 19.434 12.844 19.434 12.388H20.388C20.388 14.104 19.758 14.962 18.498 14.962C18.03 14.962 17.544 14.806 17.04 14.494L15.276 13.36C15 13.192 14.742 13.108 14.502 13.108Z" fill="#9CA1BE"/>
</svg>