<svg width="33" height="32" viewBox="0 0 33 32" fill="none" xmlns="http://www.w3.org/2000/svg">
    <circle cx="16.5" cy="16" r="15.5" fill="#FCFCFD" stroke="#EFF1F3"/>
    <path d="M17.7931 21.322C17.2144 21.322 16.6824 21.2147 16.1971 21C15.7211 20.7947 15.3338 20.5427 15.0351 20.244C14.7364 19.936 14.4751 19.5953 14.2511 19.222C14.0364 18.8393 13.8778 18.508 13.7751 18.228C13.6818 17.9387 13.6164 17.6773 13.5791 17.444H12.4171L12.7251 16.618H13.4951C13.4858 16.4687 13.4811 16.3193 13.4811 16.17C13.4811 16.1233 13.4951 15.9647 13.5231 15.694H12.4171L12.7251 14.868H13.6071C13.6351 14.672 13.6911 14.4433 13.7751 14.182C13.8684 13.9113 14.0224 13.5893 14.2371 13.216C14.4611 12.8333 14.7224 12.4927 15.0211 12.194C15.3198 11.886 15.7211 11.6247 16.2251 11.41C16.7291 11.186 17.2798 11.074 17.8771 11.074C18.8011 11.074 19.7018 11.3867 20.5791 12.012L20.1591 13.034C19.6831 12.6793 19.2678 12.4413 18.9131 12.32C18.5678 12.1987 18.1898 12.138 17.7791 12.138C17.1444 12.138 16.5564 12.3713 16.0151 12.838C15.4831 13.3047 15.1051 13.9813 14.8811 14.868H19.4311L19.1091 15.694H14.7551C14.7364 15.89 14.7271 16.058 14.7271 16.198C14.7271 16.338 14.7318 16.478 14.7411 16.618H18.7591L18.4231 17.444H14.8531C15.0584 18.3027 15.4411 18.984 16.0011 19.488C16.5611 19.9827 17.1584 20.23 17.7931 20.23C18.1758 20.23 18.5258 20.1833 18.8431 20.09C19.1698 19.9967 19.5991 19.7913 20.1311 19.474V20.72C19.4684 21.1213 18.6891 21.322 17.7931 21.322Z" fill="#9CA1BE"/>
</svg>