<svg width="33" height="32" viewBox="0 0 33 32" fill="none" xmlns="http://www.w3.org/2000/svg">
    <circle cx="16.5" cy="16" r="15.5" fill="#FCFCFD" stroke="#EFF1F3"/>
    <path d="M14.6684 13.678C14.6684 13.9393 14.701 14.1727 14.7664 14.378C14.841 14.5833 14.967 14.8307 15.1444 15.12C15.3217 15.4093 15.4384 15.6147 15.4944 15.736H17.7344V16.506H15.8304C15.9704 16.9073 16.0404 17.2387 16.0404 17.5C16.0404 17.864 15.919 18.2373 15.6764 18.62C15.443 19.0027 15.0137 19.5113 14.3884 20.146C14.939 19.782 15.5084 19.6 16.0964 19.6C16.4044 19.6 16.801 19.6747 17.2864 19.824C17.7717 19.964 18.1264 20.034 18.3504 20.034C18.7237 20.034 19.111 19.894 19.5124 19.614L20.1004 20.538C19.5684 21.0607 18.957 21.322 18.2664 21.322C17.865 21.322 17.3517 21.2147 16.7264 21C16.101 20.7853 15.625 20.678 15.2984 20.678C14.8037 20.678 14.295 20.8507 13.7724 21.196L13.1004 20.272C13.7444 19.7213 14.197 19.2453 14.4584 18.844C14.7197 18.4427 14.8504 18.0273 14.8504 17.598C14.8504 17.2433 14.7384 16.8793 14.5144 16.506H12.9744V15.736H14.1084C13.791 15.204 13.5857 14.826 13.4924 14.602C13.4084 14.3687 13.3664 14.098 13.3664 13.79C13.3664 12.9407 13.6837 12.2313 14.3184 11.662C14.9624 11.0833 15.7557 10.794 16.6984 10.794C16.969 10.794 17.2257 10.8173 17.4684 10.864C17.7204 10.9013 17.991 10.99 18.2804 11.13C18.5697 11.27 18.817 11.4567 19.0224 11.69C19.2277 11.914 19.4004 12.2313 19.5404 12.642C19.6897 13.0433 19.769 13.51 19.7784 14.042H18.5464C18.509 12.6047 17.8744 11.886 16.6424 11.886C16.045 11.886 15.5644 12.0493 15.2004 12.376C14.8457 12.7027 14.6684 13.1367 14.6684 13.678Z" fill="#9CA1BE"/>
</svg>
