<svg width="33" height="32" viewBox="0 0 33 32" fill="none" xmlns="http://www.w3.org/2000/svg">
    <circle cx="16.5" cy="16" r="15.5" fill="#FCFCFD" stroke="#EFF1F3"/>
    <path d="M19.8624 18.27C19.8624 19.166 19.601 19.8847 19.0784 20.426C18.565 20.958 17.8184 21.2567 16.8384 21.322V22.764H16.0124V21.322C14.0524 21.1913 13.0724 20.1133 13.0724 18.088H14.1784C14.197 18.2747 14.2064 18.4007 14.2064 18.466C14.2157 18.522 14.2344 18.6387 14.2624 18.816C14.2904 18.984 14.3184 19.1053 14.3464 19.18C14.3837 19.2453 14.4304 19.348 14.4864 19.488C14.5517 19.628 14.6264 19.7353 14.7104 19.81C14.7944 19.8753 14.897 19.95 15.0184 20.034C15.1397 20.118 15.2844 20.188 15.4524 20.244C15.6204 20.2907 15.807 20.328 16.0124 20.356V16.548C15.0417 16.2587 14.337 15.932 13.8984 15.568C13.469 15.1947 13.2544 14.5973 13.2544 13.776C13.2544 12.9827 13.4877 12.348 13.9544 11.872C14.4304 11.3867 15.1164 11.088 16.0124 10.976V10.22H16.8384V10.976C17.6877 11.0413 18.3504 11.3213 18.8264 11.816C19.3117 12.3013 19.5544 12.9407 19.5544 13.734H18.4484C18.439 13.2207 18.285 12.8007 17.9864 12.474C17.6877 12.1473 17.305 11.9747 16.8384 11.956V15.442C16.8757 15.4513 17.0157 15.4887 17.2584 15.554C17.501 15.6193 17.6877 15.6753 17.8184 15.722C17.949 15.7687 18.131 15.8433 18.3644 15.946C18.607 16.0487 18.7984 16.1653 18.9384 16.296C19.0877 16.4173 19.2417 16.5713 19.4004 16.758C19.559 16.9353 19.6757 17.1547 19.7504 17.416C19.825 17.6773 19.8624 17.962 19.8624 18.27ZM16.0124 15.33V11.97C15.4897 12.0447 15.0884 12.2267 14.8084 12.516C14.5284 12.8053 14.3884 13.1787 14.3884 13.636C14.3884 14.476 14.9297 15.0407 16.0124 15.33ZM16.8384 20.356C17.4637 20.2813 17.9304 20.0713 18.2384 19.726C18.5557 19.3807 18.7144 18.9513 18.7144 18.438C18.7144 17.9807 18.579 17.626 18.3084 17.374C18.047 17.122 17.557 16.8887 16.8384 16.674V20.356Z" fill="#9CA1BE"/>
</svg>
