<svg width="141" height="140" viewBox="0 0 141 140" fill="none" xmlns="http://www.w3.org/2000/svg">
    <g clip-path="url(#clip0)">
        <path d="M140.5 0H0.5V140H140.5V0Z" fill="white"/>
        <path d="M72.9135 9.65527H68.0859V14.4829H72.9135V9.65527Z" fill="black"/>
        <path d="M77.7416 9.65527H72.9141V14.4829H77.7416V9.65527Z" fill="black"/>
        <path d="M53.604 14.4829H48.7764V19.3105H53.604V14.4829Z" fill="black"/>
        <path d="M72.9135 14.4829H68.0859V19.3105H72.9135V14.4829Z" fill="black"/>
        <path d="M77.7416 14.4829H72.9141V19.3105H77.7416V14.4829Z" fill="black"/>
        <path d="M92.2241 14.4829H87.3965V19.3105H92.2241V14.4829Z" fill="black"/>
        <path d="M53.604 19.3105H48.7764V24.1381H53.604V19.3105Z" fill="black"/>
        <path d="M58.4311 19.3105H53.6035V24.1381H58.4311V19.3105Z" fill="black"/>
        <path d="M72.9135 19.3105H68.0859V24.1381H72.9135V19.3105Z" fill="black"/>
        <path d="M87.3969 19.3105H82.5693V24.1381H87.3969V19.3105Z" fill="black"/>
        <path d="M92.2241 19.3105H87.3965V24.1381H92.2241V19.3105Z" fill="black"/>
        <path d="M53.604 24.1382H48.7764V28.9658H53.604V24.1382Z" fill="black"/>
        <path d="M58.4311 24.1382H53.6035V28.9658H58.4311V24.1382Z" fill="black"/>
        <path d="M63.2592 24.1382H58.4316V28.9658H63.2592V24.1382Z" fill="black"/>
        <path d="M68.0864 24.1382H63.2588V28.9658H68.0864V24.1382Z" fill="black"/>
        <path d="M77.7416 24.1382H72.9141V28.9658H77.7416V24.1382Z" fill="black"/>
        <path d="M82.5688 24.1382H77.7412V28.9658H82.5688V24.1382Z" fill="black"/>
        <path d="M92.2241 24.1382H87.3965V28.9658H92.2241V24.1382Z" fill="black"/>
        <path d="M63.2592 28.9656H58.4316V33.7932H63.2592V28.9656Z" fill="black"/>
        <path d="M68.0864 28.9656H63.2588V33.7932H68.0864V28.9656Z" fill="black"/>
        <path d="M72.9135 28.9656H68.0859V33.7932H72.9135V28.9656Z" fill="black"/>
        <path d="M77.7416 28.9656H72.9141V33.7932H77.7416V28.9656Z" fill="black"/>
        <path d="M92.2241 28.9656H87.3965V33.7932H92.2241V28.9656Z" fill="black"/>
        <path d="M63.2592 33.7932H58.4316V38.6208H63.2592V33.7932Z" fill="black"/>
        <path d="M68.0864 33.7932H63.2588V38.6208H68.0864V33.7932Z" fill="black"/>
        <path d="M77.7416 33.7932H72.9141V38.6208H77.7416V33.7932Z" fill="black"/>
        <path d="M82.5688 33.7932H77.7412V38.6208H82.5688V33.7932Z" fill="black"/>
        <path d="M53.604 38.6208H48.7764V43.4484H53.604V38.6208Z" fill="black"/>
        <path d="M63.2592 38.6208H58.4316V43.4484H63.2592V38.6208Z" fill="black"/>
        <path d="M72.9135 38.6208H68.0859V43.4484H72.9135V38.6208Z" fill="black"/>
        <path d="M82.5688 38.6208H77.7412V43.4484H82.5688V38.6208Z" fill="black"/>
        <path d="M92.2241 38.6208H87.3965V43.4484H92.2241V38.6208Z" fill="black"/>
        <path d="M53.604 43.4485H48.7764V48.2761H53.604V43.4485Z" fill="black"/>
        <path d="M87.3969 43.4485H82.5693V48.2761H87.3969V43.4485Z" fill="black"/>
        <path d="M92.2241 43.4485H87.3965V48.2761H92.2241V43.4485Z" fill="black"/>
        <path d="M14.9829 48.2761H10.1553V53.1037H14.9829V48.2761Z" fill="black"/>
        <path d="M43.9487 48.2761H39.1211V53.1037H43.9487V48.2761Z" fill="black"/>
        <path d="M53.604 48.2761H48.7764V53.1037H53.604V48.2761Z" fill="black"/>
        <path d="M58.4311 48.2761H53.6035V53.1037H58.4311V48.2761Z" fill="black"/>
        <path d="M63.2592 48.2761H58.4316V53.1037H63.2592V48.2761Z" fill="black"/>
        <path d="M68.0864 48.2761H63.2588V53.1037H68.0864V48.2761Z" fill="black"/>
        <path d="M77.7416 48.2761H72.9141V53.1037H77.7416V48.2761Z" fill="black"/>
        <path d="M82.5688 48.2761H77.7412V53.1037H82.5688V48.2761Z" fill="black"/>
        <path d="M97.0522 48.2761H92.2246V53.1037H97.0522V48.2761Z" fill="black"/>
        <path d="M101.879 48.2761H97.0518V53.1037H101.879V48.2761Z" fill="black"/>
        <path d="M116.362 48.2761H111.534V53.1037H116.362V48.2761Z" fill="black"/>
        <path d="M121.19 48.2761H116.362V53.1037H121.19V48.2761Z" fill="black"/>
        <path d="M126.017 48.2761H121.189V53.1037H126.017V48.2761Z" fill="black"/>
        <path d="M14.9829 53.1035H10.1553V57.9311H14.9829V53.1035Z" fill="black"/>
        <path d="M29.4663 53.1035H24.6387V57.9311H29.4663V53.1035Z" fill="black"/>
        <path d="M34.2934 53.1035H29.4658V57.9311H34.2934V53.1035Z" fill="black"/>
        <path d="M39.1206 53.1035H34.293V57.9311H39.1206V53.1035Z" fill="black"/>
        <path d="M58.4311 53.1035H53.6035V57.9311H58.4311V53.1035Z" fill="black"/>
        <path d="M72.9135 53.1035H68.0859V57.9311H72.9135V53.1035Z" fill="black"/>
        <path d="M82.5688 53.1035H77.7412V57.9311H82.5688V53.1035Z" fill="black"/>
        <path d="M87.3969 53.1035H82.5693V57.9311H87.3969V53.1035Z" fill="black"/>
        <path d="M106.707 53.1035H101.88V57.9311H106.707V53.1035Z" fill="black"/>
        <path d="M111.535 53.1035H106.707V57.9311H111.535V53.1035Z" fill="black"/>
        <path d="M116.362 53.1035H111.534V57.9311H116.362V53.1035Z" fill="black"/>
        <path d="M121.19 53.1035H116.362V57.9311H121.19V53.1035Z" fill="black"/>
        <path d="M126.017 53.1035H121.189V57.9311H126.017V53.1035Z" fill="black"/>
        <path d="M14.9829 57.9312H10.1553V62.7587H14.9829V57.9312Z" fill="black"/>
        <path d="M19.811 57.9312H14.9834V62.7587H19.811V57.9312Z" fill="black"/>
        <path d="M34.2934 57.9312H29.4658V62.7587H34.2934V57.9312Z" fill="black"/>
        <path d="M39.1206 57.9312H34.293V62.7587H39.1206V57.9312Z" fill="black"/>
        <path d="M43.9487 57.9312H39.1211V62.7587H43.9487V57.9312Z" fill="black"/>
        <path d="M53.604 57.9312H48.7764V62.7587H53.604V57.9312Z" fill="black"/>
        <path d="M63.2592 57.9312H58.4316V62.7587H63.2592V57.9312Z" fill="black"/>
        <path d="M72.9135 57.9312H68.0859V62.7587H72.9135V57.9312Z" fill="black"/>
        <path d="M77.7416 57.9312H72.9141V62.7587H77.7416V57.9312Z" fill="black"/>
        <path d="M87.3969 57.9312H82.5693V62.7587H87.3969V57.9312Z" fill="black"/>
        <path d="M92.2241 57.9312H87.3965V62.7587H92.2241V57.9312Z" fill="black"/>
        <path d="M101.879 57.9312H97.0518V62.7587H101.879V57.9312Z" fill="black"/>
        <path d="M106.707 57.9312H101.88V62.7587H106.707V57.9312Z" fill="black"/>
        <path d="M116.362 57.9312H111.534V62.7587H116.362V57.9312Z" fill="black"/>
        <path d="M126.017 57.9312H121.189V62.7587H126.017V57.9312Z" fill="black"/>
        <path d="M130.845 57.9312H126.018V62.7587H130.845V57.9312Z" fill="black"/>
        <path d="M19.811 62.7588H14.9834V67.5864H19.811V62.7588Z" fill="black"/>
        <path d="M34.2934 62.7588H29.4658V67.5864H34.2934V62.7588Z" fill="black"/>
        <path d="M48.7758 62.7588H43.9482V67.5864H48.7758V62.7588Z" fill="black"/>
        <path d="M53.604 62.7588H48.7764V67.5864H53.604V62.7588Z" fill="black"/>
        <path d="M58.4311 62.7588H53.6035V67.5864H58.4311V62.7588Z" fill="black"/>
        <path d="M63.2592 62.7588H58.4316V67.5864H63.2592V62.7588Z" fill="black"/>
        <path d="M68.0864 62.7588H63.2588V67.5864H68.0864V62.7588Z" fill="black"/>
        <path d="M82.5688 62.7588H77.7412V67.5864H82.5688V62.7588Z" fill="black"/>
        <path d="M87.3969 62.7588H82.5693V67.5864H87.3969V62.7588Z" fill="black"/>
        <path d="M97.0522 62.7588H92.2246V67.5864H97.0522V62.7588Z" fill="black"/>
        <path d="M116.362 62.7588H111.534V67.5864H116.362V62.7588Z" fill="black"/>
        <path d="M130.845 62.7588H126.018V67.5864H130.845V62.7588Z" fill="black"/>
        <path d="M14.9829 67.5864H10.1553V72.414H14.9829V67.5864Z" fill="black"/>
        <path d="M19.811 67.5864H14.9834V72.414H19.811V67.5864Z" fill="black"/>
        <path d="M29.4663 67.5864H24.6387V72.414H29.4663V67.5864Z" fill="black"/>
        <path d="M39.1206 67.5864H34.293V72.414H39.1206V67.5864Z" fill="black"/>
        <path d="M43.9487 67.5864H39.1211V72.414H43.9487V67.5864Z" fill="black"/>
        <path d="M58.4311 67.5864H53.6035V72.414H58.4311V67.5864Z" fill="black"/>
        <path d="M87.3969 67.5864H82.5693V72.414H87.3969V67.5864Z" fill="black"/>
        <path d="M101.879 67.5864H97.0518V72.414H101.879V67.5864Z" fill="black"/>
        <path d="M106.707 67.5864H101.88V72.414H106.707V67.5864Z" fill="black"/>
        <path d="M130.845 67.5864H126.018V72.414H130.845V67.5864Z" fill="black"/>
        <path d="M14.9829 72.4138H10.1553V77.2414H14.9829V72.4138Z" fill="black"/>
        <path d="M24.6381 72.4138H19.8105V77.2414H24.6381V72.4138Z" fill="black"/>
        <path d="M34.2934 72.4138H29.4658V77.2414H34.2934V72.4138Z" fill="black"/>
        <path d="M39.1206 72.4138H34.293V77.2414H39.1206V72.4138Z" fill="black"/>
        <path d="M48.7758 72.4138H43.9482V77.2414H48.7758V72.4138Z" fill="black"/>
        <path d="M58.4311 72.4138H53.6035V77.2414H58.4311V72.4138Z" fill="black"/>
        <path d="M63.2592 72.4138H58.4316V77.2414H63.2592V72.4138Z" fill="black"/>
        <path d="M72.9135 72.4138H68.0859V77.2414H72.9135V72.4138Z" fill="black"/>
        <path d="M77.7416 72.4138H72.9141V77.2414H77.7416V72.4138Z" fill="black"/>
        <path d="M87.3969 72.4138H82.5693V77.2414H87.3969V72.4138Z" fill="black"/>
        <path d="M92.2241 72.4138H87.3965V77.2414H92.2241V72.4138Z" fill="black"/>
        <path d="M106.707 72.4138H101.88V77.2414H106.707V72.4138Z" fill="black"/>
        <path d="M126.017 72.4138H121.189V77.2414H126.017V72.4138Z" fill="black"/>
        <path d="M14.9829 77.2415H10.1553V82.0691H14.9829V77.2415Z" fill="black"/>
        <path d="M29.4663 77.2415H24.6387V82.0691H29.4663V77.2415Z" fill="black"/>
        <path d="M43.9487 77.2415H39.1211V82.0691H43.9487V77.2415Z" fill="black"/>
        <path d="M58.4311 77.2415H53.6035V82.0691H58.4311V77.2415Z" fill="black"/>
        <path d="M77.7416 77.2415H72.9141V82.0691H77.7416V77.2415Z" fill="black"/>
        <path d="M82.5688 77.2415H77.7412V82.0691H82.5688V77.2415Z" fill="black"/>
        <path d="M87.3969 77.2415H82.5693V82.0691H87.3969V77.2415Z" fill="black"/>
        <path d="M92.2241 77.2415H87.3965V82.0691H92.2241V77.2415Z" fill="black"/>
        <path d="M111.535 77.2415H106.707V82.0691H111.535V77.2415Z" fill="black"/>
        <path d="M116.362 77.2415H111.534V82.0691H116.362V77.2415Z" fill="black"/>
        <path d="M126.017 77.2415H121.189V82.0691H126.017V77.2415Z" fill="black"/>
        <path d="M130.845 77.2415H126.018V82.0691H130.845V77.2415Z" fill="black"/>
        <path d="M14.9829 82.0691H10.1553V86.8967H14.9829V82.0691Z" fill="black"/>
        <path d="M29.4663 82.0691H24.6387V86.8967H29.4663V82.0691Z" fill="black"/>
        <path d="M39.1206 82.0691H34.293V86.8967H39.1206V82.0691Z" fill="black"/>
        <path d="M53.604 82.0691H48.7764V86.8967H53.604V82.0691Z" fill="black"/>
        <path d="M58.4311 82.0691H53.6035V86.8967H58.4311V82.0691Z" fill="black"/>
        <path d="M72.9135 82.0691H68.0859V86.8967H72.9135V82.0691Z" fill="black"/>
        <path d="M92.2241 82.0691H87.3965V86.8967H92.2241V82.0691Z" fill="black"/>
        <path d="M101.879 82.0691H97.0518V86.8967H101.879V82.0691Z" fill="black"/>
        <path d="M121.19 82.0691H116.362V86.8967H121.19V82.0691Z" fill="black"/>
        <path d="M130.845 82.0691H126.018V86.8967H130.845V82.0691Z" fill="black"/>
        <path d="M14.9829 86.8967H10.1553V91.7243H14.9829V86.8967Z" fill="black"/>
        <path d="M24.6381 86.8967H19.8105V91.7243H24.6381V86.8967Z" fill="black"/>
        <path d="M34.2934 86.8967H29.4658V91.7243H34.2934V86.8967Z" fill="black"/>
        <path d="M39.1206 86.8967H34.293V91.7243H39.1206V86.8967Z" fill="black"/>
        <path d="M43.9487 86.8967H39.1211V91.7243H43.9487V86.8967Z" fill="black"/>
        <path d="M53.604 86.8967H48.7764V91.7243H53.604V86.8967Z" fill="black"/>
        <path d="M58.4311 86.8967H53.6035V91.7243H58.4311V86.8967Z" fill="black"/>
        <path d="M72.9135 86.8967H68.0859V91.7243H72.9135V86.8967Z" fill="black"/>
        <path d="M77.7416 86.8967H72.9141V91.7243H77.7416V86.8967Z" fill="black"/>
        <path d="M82.5688 86.8967H77.7412V91.7243H82.5688V86.8967Z" fill="black"/>
        <path d="M87.3969 86.8967H82.5693V91.7243H87.3969V86.8967Z" fill="black"/>
        <path d="M92.2241 86.8967H87.3965V91.7243H92.2241V86.8967Z" fill="black"/>
        <path d="M97.0522 86.8967H92.2246V91.7243H97.0522V86.8967Z" fill="black"/>
        <path d="M101.879 86.8967H97.0518V91.7243H101.879V86.8967Z" fill="black"/>
        <path d="M106.707 86.8967H101.88V91.7243H106.707V86.8967Z" fill="black"/>
        <path d="M111.535 86.8967H106.707V91.7243H111.535V86.8967Z" fill="black"/>
        <path d="M121.19 86.8967H116.362V91.7243H121.19V86.8967Z" fill="black"/>
        <path d="M53.604 91.7241H48.7764V96.5517H53.604V91.7241Z" fill="black"/>
        <path d="M77.7416 91.7241H72.9141V96.5517H77.7416V91.7241Z" fill="black"/>
        <path d="M92.2241 91.7241H87.3965V96.5517H92.2241V91.7241Z" fill="black"/>
        <path d="M111.535 91.7241H106.707V96.5517H111.535V91.7241Z" fill="black"/>
        <path d="M121.19 91.7241H116.362V96.5517H121.19V91.7241Z" fill="black"/>
        <path d="M72.9135 96.5518H68.0859V101.379H72.9135V96.5518Z" fill="black"/>
        <path d="M77.7416 96.5518H72.9141V101.379H77.7416V96.5518Z" fill="black"/>
        <path d="M92.2241 96.5518H87.3965V101.379H92.2241V96.5518Z" fill="black"/>
        <path d="M101.879 96.5518H97.0518V101.379H101.879V96.5518Z" fill="black"/>
        <path d="M111.535 96.5518H106.707V101.379H111.535V96.5518Z" fill="black"/>
        <path d="M116.362 96.5518H111.534V101.379H116.362V96.5518Z" fill="black"/>
        <path d="M130.845 96.5518H126.018V101.379H130.845V96.5518Z" fill="black"/>
        <path d="M63.2592 101.379H58.4316V106.207H63.2592V101.379Z" fill="black"/>
        <path d="M68.0864 101.379H63.2588V106.207H68.0864V101.379Z" fill="black"/>
        <path d="M82.5688 101.379H77.7412V106.207H82.5688V101.379Z" fill="black"/>
        <path d="M87.3969 101.379H82.5693V106.207H87.3969V101.379Z" fill="black"/>
        <path d="M92.2241 101.379H87.3965V106.207H92.2241V101.379Z" fill="black"/>
        <path d="M111.535 101.379H106.707V106.207H111.535V101.379Z" fill="black"/>
        <path d="M68.0864 106.207H63.2588V111.035H68.0864V106.207Z" fill="black"/>
        <path d="M87.3969 106.207H82.5693V111.035H87.3969V106.207Z" fill="black"/>
        <path d="M92.2241 106.207H87.3965V111.035H92.2241V106.207Z" fill="black"/>
        <path d="M97.0522 106.207H92.2246V111.035H97.0522V106.207Z" fill="black"/>
        <path d="M101.879 106.207H97.0518V111.035H101.879V106.207Z" fill="black"/>
        <path d="M106.707 106.207H101.88V111.035H106.707V106.207Z" fill="black"/>
        <path d="M111.535 106.207H106.707V111.035H111.535V106.207Z" fill="black"/>
        <path d="M116.362 106.207H111.534V111.035H116.362V106.207Z" fill="black"/>
        <path d="M121.19 106.207H116.362V111.035H121.19V106.207Z" fill="black"/>
        <path d="M126.017 106.207H121.189V111.035H126.017V106.207Z" fill="black"/>
        <path d="M130.845 106.207H126.018V111.035H130.845V106.207Z" fill="black"/>
        <path d="M63.2592 111.035H58.4316V115.862H63.2592V111.035Z" fill="black"/>
        <path d="M72.9135 111.035H68.0859V115.862H72.9135V111.035Z" fill="black"/>
        <path d="M77.7416 111.035H72.9141V115.862H77.7416V111.035Z" fill="black"/>
        <path d="M82.5688 111.035H77.7412V115.862H82.5688V111.035Z" fill="black"/>
        <path d="M97.0522 111.035H92.2246V115.862H97.0522V111.035Z" fill="black"/>
        <path d="M101.879 111.035H97.0518V115.862H101.879V111.035Z" fill="black"/>
        <path d="M106.707 111.035H101.88V115.862H106.707V111.035Z" fill="black"/>
        <path d="M116.362 111.035H111.534V115.862H116.362V111.035Z" fill="black"/>
        <path d="M126.017 111.035H121.189V115.862H126.017V111.035Z" fill="black"/>
        <path d="M130.845 111.035H126.018V115.862H130.845V111.035Z" fill="black"/>
        <path d="M58.4311 115.862H53.6035V120.69H58.4311V115.862Z" fill="black"/>
        <path d="M77.7416 115.862H72.9141V120.69H77.7416V115.862Z" fill="black"/>
        <path d="M82.5688 115.862H77.7412V120.69H82.5688V115.862Z" fill="black"/>
        <path d="M87.3969 115.862H82.5693V120.69H87.3969V115.862Z" fill="black"/>
        <path d="M106.707 115.862H101.88V120.69H106.707V115.862Z" fill="black"/>
        <path d="M121.19 115.862H116.362V120.69H121.19V115.862Z" fill="black"/>
        <path d="M130.845 115.862H126.018V120.69H130.845V115.862Z" fill="black"/>
        <path d="M63.2592 120.69H58.4316V125.517H63.2592V120.69Z" fill="black"/>
        <path d="M72.9135 120.69H68.0859V125.517H72.9135V120.69Z" fill="black"/>
        <path d="M77.7416 120.69H72.9141V125.517H77.7416V120.69Z" fill="black"/>
        <path d="M87.3969 120.69H82.5693V125.517H87.3969V120.69Z" fill="black"/>
        <path d="M92.2241 120.69H87.3965V125.517H92.2241V120.69Z" fill="black"/>
        <path d="M106.707 120.69H101.88V125.517H106.707V120.69Z" fill="black"/>
        <path d="M111.535 120.69H106.707V125.517H111.535V120.69Z" fill="black"/>
        <path d="M130.845 120.69H126.018V125.517H130.845V120.69Z" fill="black"/>
        <path d="M53.604 125.517H48.7764V130.345H53.604V125.517Z" fill="black"/>
        <path d="M68.0864 125.517H63.2588V130.345H68.0864V125.517Z" fill="black"/>
        <path d="M72.9135 125.517H68.0859V130.345H72.9135V125.517Z" fill="black"/>
        <path d="M77.7416 125.517H72.9141V130.345H77.7416V125.517Z" fill="black"/>
        <path d="M92.2241 125.517H87.3965V130.345H92.2241V125.517Z" fill="black"/>
        <path d="M116.362 125.517H111.534V130.345H116.362V125.517Z" fill="black"/>
        <path d="M130.845 125.517H126.018V130.345H130.845V125.517Z" fill="black"/>
        <path d="M38.8794 9.65527H15.2242H10.1553V14.7242V38.3794V43.4484H15.2242H38.8794H43.9484V38.3794V14.7242V9.65527H38.8794ZM38.8794 38.3794H15.2242V14.7242H38.8794V38.3794Z" fill="black"/>
        <path d="M125.776 9.65527H102.121H97.0518V14.7242V38.3794V43.4484H102.121H125.776H130.845V38.3794V14.7242V9.65527H125.776ZM125.776 38.3794H102.121V14.7242H125.776V38.3794Z" fill="black"/>
        <path d="M38.8794 96.5518H15.2242H10.1553V101.621V125.276V130.345H15.2242H38.8794H43.9484V125.276V101.621V96.5518H38.8794ZM38.8794 125.276H15.2242V101.621H38.8794V125.276Z" fill="black"/>
        <path d="M34.2933 19.3105H19.8105V33.7933H34.2933V19.3105Z" fill="black"/>
        <path d="M121.19 19.3105H106.707V33.7933H121.19V19.3105Z" fill="black"/>
        <path d="M34.2933 106.207H19.8105V120.69H34.2933V106.207Z" fill="black"/>
    </g>
    <defs>
        <clipPath id="clip0">
            <path d="M0.5 0H140.5V140H0.5V0Z" fill="white"/>
        </clipPath>
    </defs>
</svg>
