<svg width="18" height="18" viewBox="0 0 18 18" fill="none" xmlns="http://www.w3.org/2000/svg">
    <path d="M12.2592 6.04924C13.524 6.04924 14.6239 5.6368 15.6137 4.8394C16.4386 4.20699 17.016 3.3821 17.4285 2.69469L15.0913 1.1274C14.7338 1.67733 14.3489 2.11727 13.9364 2.44723C13.414 2.88717 12.8641 3.10714 12.2042 3.10714C11.4343 3.10714 10.8294 2.91466 9.72951 2.19976C8.65716 1.53985 7.41982 0.797448 5.68756 0.797448C4.31274 0.797448 3.1029 1.29238 2.11304 2.25475C1.37064 2.94216 0.848206 3.65706 0.573243 4.1245L2.91043 5.69179C3.1029 5.38933 3.57034 4.72942 4.28524 4.26198C4.72518 3.93203 5.22012 3.73955 5.79754 3.73955C6.62243 3.73955 7.28234 4.06951 8.24471 4.67443C9.26207 5.33434 10.5269 6.04924 12.2592 6.04924ZM12.2592 11.8235C13.524 11.8235 14.6239 11.411 15.6137 10.6136C16.4111 9.95372 17.016 9.15632 17.4285 8.46892L15.0913 6.90163C14.7338 7.45155 14.3489 7.89149 13.9364 8.24895C13.414 8.66139 12.8641 8.88136 12.2042 8.88136C11.4343 8.88136 10.8294 8.71638 9.72951 8.00148C8.65716 7.34157 7.41982 6.57167 5.68756 6.57167C4.31274 6.57167 3.1304 7.0941 2.11304 8.02898C1.34314 8.71638 0.848206 9.45878 0.573243 9.89872L2.91043 11.4935C3.1029 11.1636 3.57034 10.4761 4.28524 10.0087C4.72518 9.70625 5.22012 9.54127 5.79754 9.54127C6.62243 9.54127 7.30984 9.84373 8.24471 10.4487C9.26207 11.1086 10.5269 11.8235 12.2592 11.8235ZM12.2592 17.6252C13.524 17.6252 14.6239 17.2127 15.6137 16.4153C16.4111 15.7554 17.016 14.9031 17.4285 14.2706L15.0913 12.7033C14.7338 13.2258 14.3489 13.6932 13.9364 14.0232C13.3865 14.4356 12.8641 14.6831 12.2042 14.6831C11.4343 14.6831 10.8294 14.4906 9.72951 13.7757C8.65716 13.1158 7.41982 12.3734 5.68756 12.3734C4.31274 12.3734 3.1029 12.8958 2.11304 13.8307C1.37064 14.5181 0.848206 15.233 0.573243 15.7004L2.91043 17.2677C3.1029 16.9653 3.57034 16.2779 4.28524 15.8104C4.72518 15.508 5.22012 15.3155 5.79754 15.3155C6.62243 15.3155 7.28234 15.6455 8.24471 16.2229C9.28957 16.8828 10.5269 17.6252 12.2592 17.6252Z" fill="#6D40ED"/>
</svg>