<svg width="38" height="38" viewBox="0 0 38 38" fill="none" xmlns="http://www.w3.org/2000/svg">
    <rect x="1.5" y="1.5" width="35" height="35" rx="7.5" fill="white" stroke="#EFF1F3"/>
    <path fill-rule="evenodd" clip-rule="evenodd" d="M11.75 11.5C11.6119 11.5 11.5 11.6119 11.5 11.75V15.25C11.5 15.6642 11.1642 16 10.75 16C10.3358 16 10 15.6642 10 15.25V11.75C10 10.7835 10.7835 10 11.75 10H15.25C15.6642 10 16 10.3358 16 10.75C16 11.1642 15.6642 11.5 15.25 11.5H11.75ZM22 10.75C22 10.3358 22.3358 10 22.75 10H26.25C27.2165 10 28 10.7835 28 11.75V15.25C28 15.6642 27.6642 16 27.25 16C26.8358 16 26.5 15.6642 26.5 15.25V11.75C26.5 11.6119 26.3881 11.5 26.25 11.5H22.75C22.3358 11.5 22 11.1642 22 10.75ZM10.75 22C11.1642 22 11.5 22.3358 11.5 22.75V26.25C11.5 26.3881 11.6119 26.5 11.75 26.5H15.25C15.6642 26.5 16 26.8358 16 27.25C16 27.6642 15.6642 28 15.25 28H11.75C10.7835 28 10 27.2165 10 26.25V22.75C10 22.3358 10.3358 22 10.75 22ZM27.25 22C27.6642 22 28 22.3358 28 22.75V26.25C28 27.2165 27.2165 28 26.25 28H22.75C22.3358 28 22 27.6642 22 27.25C22 26.8358 22.3358 26.5 22.75 26.5H26.25C26.3881 26.5 26.5 26.3881 26.5 26.25V22.75C26.5 22.3358 26.8358 22 27.25 22Z" fill="black"/>
    <rect x="14" y="14" width="4" height="4" rx="0.5" fill="black"/>
    <rect x="15" y="15" width="2" height="2" rx="0.5" fill="#F1F1F1"/>
    <rect x="20" y="14" width="4" height="4" rx="0.5" fill="black"/>
    <rect x="21" y="15" width="2" height="2" rx="0.5" fill="#F1F1F1"/>
    <rect x="14" y="20" width="4" height="4" rx="0.5" fill="black"/>
    <rect x="15" y="21" width="2" height="2" rx="0.5" fill="#F1F1F1"/>
    <rect x="20" y="20" width="2" height="2" fill="black"/>
    <rect x="22" y="22" width="2" height="2" fill="black"/>
</svg>
